<svg width="1200" height="360" viewBox="0 0 1200 360" fill="none" xmlns="http://www.w3.org/2000/svg" role="img" aria-labelledby="title desc">
  <title id="title">Naveen Nazaria profile banner</title>
  <desc id="desc">A visual banner for Naveen Nazaria with the line Perspective to Practice to Public Value.</desc>
  <defs>
    <linearGradient id="bg" x1="0" y1="0" x2="1200" y2="360" gradientUnits="userSpaceOnUse">
      <stop stop-color="#07111F"/>
      <stop offset="0.48" stop-color="#102A43"/>
      <stop offset="1" stop-color="#0B3B35"/>
    </linearGradient>
    <radialGradient id="glow" cx="0" cy="0" r="1" gradientUnits="userSpaceOnUse" gradientTransform="translate(920 90) rotate(145) scale(420 270)">
      <stop stop-color="#38BDF8" stop-opacity="0.48"/>
      <stop offset="0.55" stop-color="#14B8A6" stop-opacity="0.18"/>
      <stop offset="1" stop-color="#07111F" stop-opacity="0"/>
    </radialGradient>
    <linearGradient id="lens" x1="705" y1="65" x2="1040" y2="285" gradientUnits="userSpaceOnUse">
      <stop stop-color="#E0F2FE"/>
      <stop offset="0.45" stop-color="#5EEAD4"/>
      <stop offset="1" stop-color="#FDE68A"/>
    </linearGradient>
    <pattern id="grid" width="48" height="48" patternUnits="userSpaceOnUse">
      <path d="M48 0H0V48" stroke="#FFFFFF" stroke-opacity="0.06"/>
    </pattern>
    <filter id="softShadow" x="-20%" y="-20%" width="140%" height="140%" color-interpolation-filters="sRGB">
      <feDropShadow dx="0" dy="20" stdDeviation="18" flood-color="#000000" flood-opacity="0.35"/>
    </filter>
  </defs>
  <rect width="1200" height="360" rx="32" fill="url(#bg)"/>
  <rect width="1200" height="360" rx="32" fill="url(#grid)"/>
  <rect width="1200" height="360" rx="32" fill="url(#glow)"/>
  <path d="M54 286C175 244 271 253 383 284C502 317 603 308 694 263" stroke="#38BDF8" stroke-opacity="0.32" stroke-width="3"/>
  <path d="M45 310C161 278 277 283 383 314C504 350 613 334 733 290" stroke="#5EEAD4" stroke-opacity="0.26" stroke-width="3"/>
  <g filter="url(#softShadow)">
    <path d="M695 182C760 91 901 65 1013 182C902 299 761 273 695 182Z" stroke="url(#lens)" stroke-width="16" stroke-linecap="round" stroke-linejoin="round"/>
    <circle cx="855" cy="182" r="62" fill="#07111F" stroke="#E0F2FE" stroke-width="12"/>
    <circle cx="872" cy="162" r="16" fill="#FDE68A"/>
    <path d="M765 182H945" stroke="#E0F2FE" stroke-opacity="0.45" stroke-width="4" stroke-linecap="round"/>
    <path d="M855 92V272" stroke="#5EEAD4" stroke-opacity="0.26" stroke-width="4" stroke-linecap="round"/>
  </g>
  <text x="70" y="92" fill="#A7F3D0" font-family="Inter, ui-sans-serif, system-ui, -apple-system, BlinkMacSystemFont, Segoe UI, sans-serif" font-size="18" font-weight="700" letter-spacing="4">NAZARIA</text>
  <text x="70" y="158" fill="#FFFFFF" font-family="Inter, ui-sans-serif, system-ui, -apple-system, BlinkMacSystemFont, Segoe UI, sans-serif" font-size="56" font-weight="800">Naveen Nazaria</text>
  <text x="72" y="204" fill="#D6E4F0" font-family="Inter, ui-sans-serif, system-ui, -apple-system, BlinkMacSystemFont, Segoe UI, sans-serif" font-size="24" font-weight="500">Learn by doing. Build with judgment. Share what becomes useful.</text>
  <g font-family="Inter, ui-sans-serif, system-ui, -apple-system, BlinkMacSystemFont, Segoe UI, sans-serif" font-size="18" font-weight="700">
    <rect x="70" y="245" width="162" height="44" rx="22" fill="#E0F2FE" fill-opacity="0.13" stroke="#7DD3FC" stroke-opacity="0.55"/>
    <text x="94" y="273" fill="#E0F2FE">Perspective</text>
    <rect x="252" y="245" width="132" height="44" rx="22" fill="#CCFBF1" fill-opacity="0.12" stroke="#5EEAD4" stroke-opacity="0.55"/>
    <text x="278" y="273" fill="#CCFBF1">Practice</text>
    <rect x="404" y="245" width="182" height="44" rx="22" fill="#FEF3C7" fill-opacity="0.12" stroke="#FDE68A" stroke-opacity="0.55"/>
    <text x="430" y="273" fill="#FEF3C7">Public Value</text>
  </g>
</svg>
