<svg xmlns="http://www.w3.org/2000/svg" viewBox="0 0 512 512" role="img" aria-label="Naveen Agrawal monogram">
  <rect width="512" height="512" rx="112" fill="#0f1f1a"/>
  <path d="M96 346V166c0-38 31-69 69-69h182c38 0 69 31 69 69v180c0 38-31 69-69 69H165c-38 0-69-31-69-69Z" fill="#f3ead9"/>
  <path d="M126 337V175c0-22 18-40 40-40h180c22 0 40 18 40 40v162c0 22-18 40-40 40H166c-22 0-40-18-40-40Z" fill="#fffaf0"/>
  <path d="M168 340V172h42l92 108V172h43v168h-39l-95-111v111h-43Z" fill="#10221c"/>
  <path d="M300 338h-46l68-166h47l68 166h-47l-12-32h-66l-12 32Zm24-66h42l-21-57-21 57Z" fill="#b8791a"/>
  <path d="M156 397h200" stroke="#b8791a" stroke-width="14" stroke-linecap="round"/>
  <circle cx="156" cy="156" r="14" fill="#4e7f61"/>
  <circle cx="356" cy="156" r="14" fill="#4e7f61"/>
  <circle cx="256" cy="397" r="10" fill="#4e7f61"/>
</svg>
